<svg width="120" height="80" fill="none" xmlns="http://www.w3.org/2000/svg"><g clip-path="url(#a)"><path opacity=".4" d="M35.765 22.13h-7.718a.772.772 0 0 0-.79.79l-.038 15.774c0 8.17-6.626 14.758-14.796 14.758H1.62a.772.772 0 0 0-.79.79v7.755c0 .453.338.791.79.791h10.805c3.764 0 7.228-.64 10.277-1.882v-7.341h9.45c2.785-3.915 4.404-8.922 4.404-14.833V22.92a.795.795 0 0 0-.79-.79Z" fill="#fff"/><path d="M35.765 21.113h-7.718a1.59 1.59 0 0 0-1.581 1.581l-.038 15.774c0 7.718-6.287 14.005-14.042 13.967H1.58A1.59 1.59 0 0 0 0 54.017l.038 7.717a1.59 1.59 0 0 0 1.58 1.581h10.806c3.764 0 7.228-.64 10.277-1.844v-1.694c-3.012 1.28-6.475 1.995-10.277 1.995L1.58 61.734l.038-7.755h10.805c8.583 0 15.585-6.965 15.585-15.548l.038-15.812h7.718l-.038 15.774c0 6.024-1.77 11.181-4.856 15.096h1.995c2.823-4.028 4.442-9.185 4.442-15.096l.038-15.774c0-.79-.715-1.506-1.581-1.506ZM76.875 10.082l5.572-2.409s-.565-1.092-.753-2.108C81.167 2.967 82.786.67 85.421.106c2.41-.49 4.254.753 4.668 2.861.527 2.447-.865 4.18-3.162 5.196l-9.224 3.953a.745.745 0 0 1-1.016-.415l-.263-.564a.835.835 0 0 1 .451-1.055Zm9.374-4.028c1.055-.49 1.657-1.468 1.469-2.447-.189-.903-.904-1.468-1.958-1.242-1.318.263-1.958 1.355-1.694 2.598.188.865.715 1.694.715 1.694l1.468-.603ZM32.339 71.07h-1.054a.283.283 0 0 0-.264.189l-2.146 5.308-2.296-5.308c-.038-.113-.15-.15-.264-.15h-1.054a.257.257 0 0 0-.263.263v8.282c0 .15.112.264.263.264h.904c.15 0 .263-.113.263-.264v-4.78l1.544 3.65c.037.114.15.151.263.151h1.092a.283.283 0 0 0 .263-.188l1.469-3.69v-.037 4.894c0 .15.113.264.263.264h.941c.151 0 .264-.113.264-.264v-8.282c.075-.188-.038-.301-.188-.301ZM47.398 71.109h-.98a.288.288 0 0 0-.188.075.288.288 0 0 0-.075.188v4.706c0 1.13-.113 1.581-.188 1.77a1.19 1.19 0 0 1-.527.526c-.527.264-1.318.226-1.845 0-.263-.112-.452-.263-.565-.489-.075-.15-.188-.527-.188-1.43v-5.083a.257.257 0 0 0-.263-.263h-1.092a.288.288 0 0 0-.188.075.288.288 0 0 0-.076.188v5.195c0 .98.113 1.657.415 2.109.263.451.677.753 1.242.94a5.062 5.062 0 0 0 1.732.302c.677 0 1.242-.113 1.731-.376a3.154 3.154 0 0 0 1.092-1.017c.264-.452.377-1.167.377-2.183v-4.97c-.151-.15-.264-.263-.414-.263ZM61.402 71.598c-.564-.339-1.393-.49-2.597-.49h-2.297a.257.257 0 0 0-.263.264v8.282c0 .151.113.264.263.264h2.447c1.092 0 1.92-.188 2.523-.602a3.336 3.336 0 0 0 1.28-1.582c.263-.64.414-1.392.414-2.296 0-.941-.15-1.732-.452-2.41-.339-.602-.753-1.091-1.318-1.43Zm.113 3.99c0 .678-.113 1.243-.301 1.695-.188.414-.452.715-.753.903-.339.188-.866.301-1.581.301h-1.017v-5.985h.98c.752 0 1.317.113 1.656.338.339.226.564.528.753 1.017.15.452.263 1.054.263 1.732ZM75.972 71.297a.283.283 0 0 0-.264-.188h-1.092a.317.317 0 0 0-.263.15l-3.426 8.283a.232.232 0 0 0 .038.263c.037.075.15.113.225.113h1.017a.317.317 0 0 0 .264-.15l.865-2.109h3.276l.79 2.108c.038.113.15.189.264.189h1.167c.075 0 .188-.038.226-.113.037-.076.075-.15.037-.264l-3.124-8.282Zm.15 5.007h-2.22l1.166-2.824 1.054 2.824ZM93.666 73.141a3.243 3.243 0 0 0-1.318-1.505c-.565-.34-1.393-.49-2.597-.49h-2.297a.257.257 0 0 0-.263.264v8.282c0 .15.112.264.263.264h2.447c1.092 0 1.92-.189 2.522-.603a3.335 3.335 0 0 0 1.28-1.58c.264-.64.415-1.394.415-2.297 0-.866-.151-1.695-.452-2.335Zm-1.468.716c.188.49.263 1.092.263 1.77 0 .677-.113 1.242-.301 1.693-.188.415-.452.716-.753.904-.339.188-.866.301-1.581.301h-1.017V72.54h.98c.752 0 1.317.113 1.656.339.338.188.564.527.753.979Z" fill="#fff"/><path d="M111.322 22.28c-4.593-4.028-10.127-5.42-16.188-4.743-4.819.527-9.035 2.447-12.537 5.797-7.34 7.04-9.486 18.673-5.12 27.86.34.677.754.903 1.506.903 3.502-.038 7.003 0 10.504 0 .226 0 .452 0 .678-.038.64-.113.903-.678.564-1.205-.188-.263-.451-.451-.677-.715-5.647-6.023-4.669-14.419.414-19.238 4.291-4.028 11.03-3.313 14.494 0 2.711 2.598 4.028 5.798 3.915 9.525-.113 5.61-4.555 12.8-13.214 12.8H75.896c-1.694 0-3.425.075-5.12-.075-5.308-.49-10.277-4.932-11.294-10.165-.376-1.995-.49-4.028-.527-6.023-.037-4.367.038-8.735.113-13.102.038-1.58-.414-2.409-2.334-2.296-1.619.075-3.275 0-4.932 0-.753 0-1.468-.038-2.22 0-.83.038-1.356.565-1.47 1.393-.037.188 0 .376 0 .565 0 4.254.038 8.508.038 12.724 0 1.732-.037 3.464-.225 5.196-.49 4.63-3.163 8.47-7.191 10.428a13.34 13.34 0 0 1-5.496 1.205H22.814a.795.795 0 0 0-.79.79v9.337c0 .414.338.79.79.79h12.424c1.694 0 3.35-.263 5.007-.49.113 0 .188-.037.3-.037.076 0 .151-.038.264-.038 1.469-.263 2.937-.865 4.254-1.505a24.458 24.458 0 0 0 3.84-2.26 27.645 27.645 0 0 0 3.991-3.576c.226-.263.452-.527.828-.903.15.226.264.414.377.565 1.543 1.769 3.313 3.237 5.27 4.517 3.313 2.221 6.965 3.69 10.993 3.727 8.584.075 17.167.15 25.75.038 6.589-.075 12.311-2.523 16.867-7.304 3.877-4.103 6.287-8.96 6.701-14.607.678-8.019-2.372-14.607-8.358-19.84Zm6.965 18.974c-.075 2.485-.715 4.895-1.694 7.191-1.581 3.727-3.878 6.965-7.078 9.487-3.84 3.012-8.282 4.555-13.139 4.593-8.169.075-16.339-.038-24.508 0-3.953 0-7.567-1.017-10.88-3.125-2.41-1.543-4.706-3.275-6.475-5.572-.602-.79-1.054-.752-1.657.038-1.731 2.221-3.802 4.104-6.211 5.572a23.726 23.726 0 0 1-2.749 1.43c-2.673 1.13-5.647 1.582-8.546 1.582H23.718v-7.793H35.35c1.92 0 3.803-.377 5.497-1.054 4.216-1.845 7.605-5.685 8.621-10.767.188-.98.264-1.996.264-2.975.037-5.232.037-10.503.037-15.736 0-.301.038-.64.038-1.017h7.868v1.168c0 5.157 0 10.277.038 15.435 0 1.205.075 2.447.301 3.652.602 3.275 2.485 5.835 4.97 7.943 2.672 2.297 5.76 3.501 9.374 3.464 7.792-.076 15.585-.038 23.34 0 6.664.037 11.558-3.878 13.704-9.186 2.221-5.459 1.205-10.504-2.522-14.946-4.706-5.647-13.854-5.421-18.598.301-4.066 4.932-4.706 11.784-1.543 17.318.414.715.866 1.43 1.355 2.259-3.125.075-6.136 0-9.223 0-.302-.716-.603-1.431-.829-2.146-2.936-8.47-.564-18.26 5.873-24.207 3.275-3.012 7.153-4.593 11.52-5.083a20.488 20.488 0 0 1 7.567.527c3.313.866 6.212 2.485 8.584 4.932 4.517 4.668 6.927 10.202 6.701 16.715Z" fill="#fff"/><path d="M84.518 57.82H97.92c4.48-.038 8.207-1.695 11.068-5.158 3.2-3.916 4.894-8.471 4.555-13.553-.451-6.74-4.894-13.177-11.708-15.022-1.092-.3-2.259-.376-3.426-.527-.188-.037-.376 0-.564-.037-.452-.076-.716-.377-.716-.79 0-.415.264-.716.753-.716.753 0 1.544 0 2.297.113 5.797.903 9.939 4.141 12.687 9.223 1.506 2.71 2.372 5.685 2.296 8.772-.188 6.024-2.296 11.294-6.851 15.435-2.862 2.56-6.325 3.803-10.165 3.84-7.417.076-15.398 0-22.814 0-1.845 0-3.652 0-5.497-.037-2.447-.038-4.706-.79-6.776-1.996-5.685-3.388-9.073-8.32-10.014-14.908-.189-1.167-.113-2.372-.113-3.576 0-4.104 0-8.245-.038-12.349v-.3c.075-.528.339-.867.715-.867.414-.037.753.34.79.904.039.264 0 .527 0 .753 0 4.405-.15 8.81.039 13.214.3 7.492 3.915 12.95 10.578 16.377 1.732.865 3.577 1.204 5.497 1.204 4.555-.037 9.562 0 14.005 0Z" fill="#fff"/><path d="M82.485 44.002c0 .415-.15.716-.565.829-.414.113-.79-.076-.904-.527a32.214 32.214 0 0 1-.451-2.749.674.674 0 0 1 .677-.752c.414 0 .678.188.79.564.19.904.302 1.807.453 2.636ZM82.56 45.81c.075.037.339.075.414.225.226.49.452.98.527 1.506.038.189-.301.565-.527.678-.188.075-.64-.038-.753-.226a3.686 3.686 0 0 1-.527-1.393c-.075-.49.339-.79.866-.79ZM94.532 22.807c-.113-.376-.414-.64-.904-.527-.753.15-1.506.34-2.221.64-5.459 2.184-8.772 6.25-10.353 11.784-.113.376-.188.753-.301 1.13h.037c-.15.677-.263 1.392-.3 2.107 0 .113 0 .189-.038.302-.076.865.113 1.242.64 1.28.564.075.828-.302.903-1.205.075-1.393.34-2.71.753-3.953h-.038c1.243-3.802 3.765-7.19 7.455-9.186 1.016-.527 2.145-.866 3.2-1.28.188-.075.376-.075.564-.15.49-.189.678-.565.603-.942Z" fill="#fff"/></g><defs><clipPath id="a"><path fill="#fff" d="M0 0h119.793v80H0z"/></clipPath></defs></svg>