<?xml version="1.0" standalone="no"?>
<!DOCTYPE svg PUBLIC "-//W3C//DTD SVG 20010904//EN"
 "http://www.w3.org/TR/2001/REC-SVG-20010904/DTD/svg10.dtd">
<svg version="1.0" xmlns="http://www.w3.org/2000/svg"
 width="32000.000000pt" height="32000.000000pt" viewBox="0 0 32000.000000 32000.000000"
 preserveAspectRatio="xMidYMid meet">

<g transform="translate(0.000000,32000.000000) scale(0.100000,-0.100000)"
fill="#000000" stroke="none">
<path d="M186945 189558 c-1485 -2503 -2701 -4553 -2703 -4558 -2 -6 3954
-6677 20195 -34050 l751 -1265 5406 -3 c2973 -1 5406 0 5406 2 0 3 -26070
43946 -26304 44338 l-52 86 -2699 -4550z"/>
<path d="M119460 171549 c-7131 -12017 -12966 -21854 -12968 -21859 -2 -7
1811 -10 5110 -10 l5113 1 10395 17521 c5717 9636 10403 17535 10414 17553
l18 32 -2552 4299 c-1404 2364 -2555 4302 -2559 4305 -3 4 -5840 -9825 -12971
-21842z"/>
<path d="M170385 136750 c-823 -56 -1476 -262 -1952 -617 -444 -331 -703 -711
-805 -1183 -19 -92 -22 -134 -23 -335 0 -190 3 -244 19 -310 53 -229 152 -398
299 -509 21 -16 36 -31 33 -33 -2 -2 -62 7 -132 21 -223 44 -464 69 -791 80
l-153 6 0 -820 0 -820 2735 0 2735 0 0 819 0 820 -817 4 c-705 3 -834 6 -933
21 -247 36 -443 94 -567 167 -83 48 -194 162 -226 230 -37 78 -46 129 -47 239
0 226 95 381 294 480 201 99 468 132 905 111 274 -13 373 -23 615 -57 98 -14
179 -24 181 -22 6 8 286 1581 281 1585 -7 7 -584 87 -776 108 -181 20 -678 28
-875 15z"/>
<path d="M224993 129829 l-4153 -2611 0 -1173 0 -1173 78 -17 c2747 -592 4273
-2048 4611 -4400 17 -119 32 -271 55 -542 l5 -53 -3535 0 -3534 0 0 3550 0
3550 -1625 0 -1625 0 0 -3550 0 -3550 -11910 0 -11910 0 0 3550 0 3550 -1620
0 -1620 0 0 -3550 0 -3550 -1372 0 c-1294 0 -1546 4 -1888 30 -1051 81 -1888
308 -2477 674 -777 481 -1220 1292 -1352 2471 -59 526 -52 1211 19 1832 84
739 264 1451 529 2093 28 68 49 126 46 128 -4 4 -3427 -538 -3434 -544 -8 -7
-105 -354 -161 -579 -193 -774 -290 -1515 -306 -2330 -34 -1728 390 -3110
1272 -4141 121 -142 409 -426 549 -543 952 -793 2217 -1283 3885 -1505 326
-44 633 -71 1195 -108 137 -9 6935 -12 28353 -15 l28172 -3 0 2672 c0 1675 -4
2744 -10 2863 -45 834 -203 1516 -491 2114 -91 190 -151 295 -275 481 -151
227 -255 352 -468 565 -300 298 -584 504 -956 690 -824 413 -1899 591 -3115
514 -1083 -68 -2006 -352 -2780 -857 -547 -356 -1015 -823 -1378 -1377 -258
-394 -458 -846 -582 -1317 -164 -625 -213 -1368 -134 -2062 89 -796 339 -1388
758 -1803 52 -52 92 -96 89 -98 -3 -3 -31 4 -64 16 -83 28 -232 65 -344 84
-264 45 -330 48 -1570 54 l-1185 6 -3 40 c-68 1032 -301 2064 -657 2920 -538
1291 -1401 2330 -2575 3101 -272 178 -524 323 -822 471 -87 43 -158 80 -158
83 0 3 1034 620 2298 1373 1264 752 2306 1373 2315 1380 16 11 17 124 15 1609
l-3 1597 -4152 -2610z m11462 -5139 c453 -43 804 -210 1068 -508 281 -317 463
-808 532 -1432 29 -265 35 -550 35 -1712 l0 -1178 -727 0 c-844 0 -1029 10
-1343 70 -339 66 -667 191 -905 347 -504 331 -796 849 -892 1588 -26 200 -26
756 0 930 99 662 364 1166 792 1507 372 297 899 438 1440 388z"/>
<path d="M90890 124545 l0 -7225 1615 0 1615 0 0 7225 0 7225 -1615 0 -1615 0
0 -7225z"/>
<path d="M153800 125815 l0 -5955 -23855 0 -23855 0 0 3333 0 3333 -162 59
c-995 361 -2183 576 -3493 634 -934 42 -1592 8 -2241 -114 -816 -154 -1524
-451 -2134 -894 -350 -254 -717 -621 -987 -988 -697 -946 -1024 -2160 -953
-3543 75 -1464 556 -2530 1472 -3261 689 -550 1656 -903 2833 -1033 473 -53
825 -66 1769 -66 l759 0 -6 -212 c-13 -445 -80 -758 -228 -1068 -340 -712
-1075 -1141 -2189 -1279 -331 -41 -440 -46 -975 -46 -1000 1 -1853 79 -2785
254 -137 26 -250 45 -250 42 0 -18 -170 -2477 -175 -2527 l-5 -61 37 -6 c797
-117 1192 -162 1783 -201 791 -53 1610 -53 2285 0 1234 96 2315 388 3158 852
1363 750 2178 1910 2411 3432 29 188 52 405 61 565 3 61 8 143 11 183 l6 72
26931 0 c17087 0 27025 4 27187 10 305 11 496 24 766 50 1284 125 2341 458
3162 996 1116 731 1790 1824 1991 3229 111 778 84 1676 -73 2407 -301 1399
-1102 2397 -2311 2878 -516 205 -1064 311 -1764 341 -783 34 -1531 -89 -2236
-367 -186 -74 -585 -271 -760 -376 -960 -576 -1658 -1353 -2096 -2333 -52
-115 -62 -130 -85 -133 -21 -3 -25 0 -21 15 10 33 56 246 76 353 81 420 127
800 173 1430 8 109 12 1013 15 3053 l4 2897 -1626 0 -1625 0 0 -5955z m-52140
-1125 c418 -26 765 -97 1076 -220 71 -28 147 -61 169 -73 l40 -23 2 -2258 3
-2258 -683 5 c-718 5 -783 8 -1062 57 -860 150 -1436 588 -1698 1291 -125 332
-180 682 -180 1129 1 284 14 430 63 673 162 803 683 1413 1370 1605 267 75
522 95 900 72z m59740 -55 c399 -61 727 -220 950 -462 272 -296 431 -701 502
-1283 21 -168 17 -812 -5 -970 -62 -434 -178 -768 -366 -1050 -362 -542 -952
-860 -1801 -969 -296 -39 -421 -41 -2061 -41 -1580 0 -1599 0 -1599 20 0 29
56 294 105 496 211 870 544 1648 998 2329 501 751 1102 1333 1700 1645 335
175 642 263 1052 304 85 9 425 -4 525 -19z"/>
<path d="M214495 131453 c-219 -28 -449 -108 -609 -211 -254 -164 -474 -413
-596 -677 -172 -369 -194 -839 -58 -1224 157 -444 545 -829 978 -971 164 -54
245 -65 470 -65 226 0 322 15 499 77 333 116 671 412 845 739 141 264 195 511
183 832 -16 417 -164 761 -457 1058 -244 248 -507 383 -840 434 -86 14 -337
18 -415 8z"/>
<path d="M218076 131445 c-328 -53 -589 -187 -821 -420 -173 -173 -306 -386
-379 -606 -46 -139 -63 -227 -78 -396 -27 -318 32 -620 173 -892 77 -149 167
-269 299 -401 213 -212 445 -340 728 -401 153 -33 421 -37 581 -10 346 59 643
229 881 503 278 320 405 696 386 1138 -17 416 -174 777 -461 1065 -209 209
-432 333 -725 402 -88 21 -136 25 -300 29 -138 2 -221 -1 -284 -11z"/>
<path d="M168130 124235 l0 -6915 1610 0 1610 0 0 6915 0 6915 -1610 0 -1610
0 0 -6915z"/>
<path d="M84727 121848 c-3 -4715 -4 -5126 -20 -5278 -50 -488 -126 -803 -262
-1085 -219 -456 -587 -702 -1180 -792 -149 -22 -707 -25 -935 -5 -280 25 -623
79 -797 126 l-52 14 -6 -42 c-9 -69 -226 -2509 -223 -2511 2 -2 62 -12 133
-23 860 -136 1910 -129 2769 18 320 55 569 115 851 207 689 225 1227 544 1680
998 521 520 871 1171 1075 1998 92 374 138 677 182 1202 8 104 12 1455 15
5213 l4 5072 -1616 0 -1615 0 -3 -5112z"/>
<path d="M184885 115834 c-89 -10 -215 -36 -310 -65 -464 -143 -882 -549
-1034 -1004 -63 -189 -75 -277 -75 -525 0 -194 3 -239 22 -327 71 -326 224
-599 467 -831 306 -292 662 -433 1095 -433 221 0 362 21 544 82 453 150 844
540 990 984 67 207 96 450 77 660 -34 385 -168 684 -428 955 -259 270 -534
422 -880 485 -86 16 -385 28 -468 19z"/>
</g>
</svg>
